<?xml version="1.0" encoding="UTF-8" standalone="no"?>
<!-- Generator: Adobe Illustrator 18.1.1, SVG Export Plug-In . SVG Version: 6.00 Build 0)  -->

<svg
   xmlns:dc="http://purl.org/dc/elements/1.1/"
   xmlns:cc="http://creativecommons.org/ns#"
   xmlns:rdf="http://www.w3.org/1999/02/22-rdf-syntax-ns#"
   xmlns:svg="http://www.w3.org/2000/svg"
   xmlns="http://www.w3.org/2000/svg"
   xmlns:sodipodi="http://sodipodi.sourceforge.net/DTD/sodipodi-0.dtd"
   xmlns:inkscape="http://www.inkscape.org/namespaces/inkscape"
   version="1.1"
   id="Layer_1"
   x="0px"
   y="0px"
   viewBox="0 0 484.79999 137.96202"
   enable-background="new 0 0 550 160"
   xml:space="preserve"
   inkscape:version="0.91 r13725"
   sodipodi:docname="film-reel-3.svg"
   width="484.79999"
   height="137.96202"><metadata
     id="metadata15"><rdf:RDF><cc:Work
         rdf:about=""><dc:format>image/svg+xml</dc:format><dc:type
           rdf:resource="http://purl.org/dc/dcmitype/StillImage" /><dc:title></dc:title></cc:Work></rdf:RDF></metadata><defs
     id="defs13" /><sodipodi:namedview
     pagecolor="#ffffff"
     bordercolor="#666666"
     borderopacity="1"
     objecttolerance="10"
     gridtolerance="10"
     guidetolerance="10"
     inkscape:pageopacity="0"
     inkscape:pageshadow="2"
     inkscape:window-width="1871"
     inkscape:window-height="1176"
     id="namedview11"
     showgrid="false"
     fit-margin-top="0"
     fit-margin-left="0"
     fit-margin-right="0"
     fit-margin-bottom="0"
     inkscape:zoom="1.8468304"
     inkscape:cx="102.93508"
     inkscape:cy="-12.308266"
     inkscape:window-x="49"
     inkscape:window-y="24"
     inkscape:window-maximized="1"
     inkscape:current-layer="Layer_1"
     inkscape:showpageshadow="false" /><g
     id="g3336"><path
       sodipodi:nodetypes="ccccccccccsscccscccsssccscssccccccccccccssssscsccsccsccccccccc"
       inkscape:connector-curvature="0"
       id="path7"
       d="m 0,89.862023 337.8,0 42.2,0 10.6,0 2.6,0 0.6,0 0.4,0 1.1,-0.1 c 1.4,-0.1 2.8,-0.3 4,-0.5 1.2,-0.3 2.4,-0.6 3.4,-1.1 0.9,-0.4 1.7,-0.9 2.4,-1.5 0.7,-0.6 1.4,-1.4 1.8,-2.2 0.2,-0.4 0.5,-0.8 0.6,-1.3 0.2,-0.5 0.3,-0.9 0.5,-1.4 0.3,-1.1 0.5,-2.3 0.6,-3.6 0,-0.7 0.1,-1.3 0.1,-2 l 0,-2.5 0,-10.6 0,-10.7 0,-5.5 c 0,-2.1 0.2,-4.2 0.5,-6.3 0.6,-4.2 1.8,-8.5 3.8,-12.5 2,-4 4.9,-7.8 8.5,-10.9 3.6,-3 8,-5.3 12.6,-6.4 4.6,-1.2 9.5,-1.3 14.1,-0.3 4.6,1 9.1,3 12.8,5.9 3.8,2.9 6.8,6.6 9,10.6 2.2,4 3.5,8.3 4.3,12.5 0.4,2.1 0.6,4.2 0.7,6.3 l 0,1.6 0,1.4 0,2.6 0,42.2 0,44.399997 -6.5,0 0,-44.399997 0,-42.3 0,-5.3 c -0.1,-1.8 -0.3,-3.6 -0.6,-5.5 -0.6,-3.6 -1.8,-7.2 -3.5,-10.5 -1.8,-3.3 -4.2,-6.2 -7.2,-8.5 -3,-2.3 -6.5,-3.9 -10.2,-4.7 -3.7,-0.8 -7.5,-0.7 -11.2,0.2 -3.7,0.9 -7.1,2.7 -10,5.1 -2.9,2.4 -5.2,5.5 -6.9,8.8 -1.7,3.3 -2.7,6.9 -3.2,10.5 -0.3,1.8 -0.4,3.6 -0.4,5.5 l 0,5.3 0,10.6 0,10.6 c 0,1.8 0.1,3.5 -0.1,5.1 -0.1,1.7 -0.4,3.3 -0.8,4.9 -0.8,3.1 -2.5,6 -4.9,8.1 -2.4,2.1 -5.5,3.4 -8.7,4.1 -1.6,0.4 -3.3,0.6 -5,0.7 l -1.3,0.1 -1.3,0 -2.6,0 -10.6,0 -42.2,0 -337.8,0 z" /><path
       sodipodi:nodetypes="ccccccccscscsccscccsccscscccccccccccscscccccscccsccssccscccccccccc"
       inkscape:connector-curvature="0"
       id="path3"
       d="m 0,109.36202 337.8,0 42.2,0 10.6,0 2.6,0 0.7,0 1,0 1.7,-0.1 c 2.2,-0.1 4.5,-0.4 6.9,-0.9 2.4,-0.5 4.8,-1.2 7.3,-2.4 2.6,-1.2 5.1,-2.7 7.3,-4.6 2.2,-1.899997 4,-4.099997 5.5,-6.599997 0.7,-1.2 1.4,-2.5 2,-3.8 0.6,-1.3 1,-2.7 1.4,-4 0.7,-2.5 1.1,-5 1.2,-7.4 0.1,-1.2 0.1,-2.3 0.1,-3.5 l 0,-2.8 0,-10.5 0,-10.5 0,-5 c 0,-1.3 0.1,-2.6 0.3,-3.8 0.7,-5 2.7,-8.9 5.6,-11.2 2.8,-2.4 6.6,-3.3 10.2,-2.6 3.6,0.7 6.6,3 8.6,6.7 1,1.8 1.7,4 2.1,6.4 0.2,1.2 0.3,2.5 0.4,3.8 l 0,1 0,1.2 0,2.6 0,42.2 0,44.399997 -6.5,0 0,-44.399997 0,-42.3 0,-2.6 0,-1.1 0,-0.8 c 0,-1.1 -0.1,-2.1 -0.3,-3 -0.3,-1.8 -0.8,-3.3 -1.4,-4.4 -0.6,-1.1 -1.3,-1.8 -2,-2.4 -0.7,-0.5 -1.4,-0.9 -2.2,-1 -1.6,-0.3 -3.4,0.1 -4.7,1.2 -0.7,0.6 -1.3,1.4 -1.9,2.5 -0.6,1.2 -1.1,2.7 -1.4,4.6 -0.1,0.9 -0.2,2 -0.2,3 l 0,4.9 0,10.5 0,10.5 0,2.9 c 0,1.3 0,2.6 -0.1,4 -0.2,2.7 -0.6,5.6 -1.5,8.6 -0.4,1.5 -1,3.2 -1.7,4.8 -0.7,1.6 -1.5,3.2 -2.4,4.7 -1.8,2.999997 -4.1,5.699997 -6.8,7.999997 -2.6,2.3 -5.7,4.2 -8.9,5.7 -3.1,1.4 -5.9,2.2 -8.6,2.8 -2.7,0.6 -5.3,0.9 -7.8,1.1 l -1.8,0.1 -0.5,0 -0.7,0 -0.8,0 -2.6,0 -10.6,0 -42.2,0 -337.9,0 z" /><path
       sodipodi:nodetypes="ccccccccscccsccscssssscccscccccccccscccscccsscscccsccccccccc"
       inkscape:connector-curvature="0"
       id="path5"
       d="m 0,99.662023 337.8,0 42.2,0 10.6,0 2.6,0 1.4,0 1.4,-0.1 c 1.8,-0.1 3.7,-0.4 5.5,-0.7 1.8,-0.4 3.6,-0.9 5.3,-1.7 1.7,-0.8 3.4,-1.8 4.9,-3.1 2.9,-2.5 4.9,-6 5.9,-9.7 0.5,-1.8 0.8,-3.7 0.9,-5.5 0.2,-1.8 0.1,-3.7 0.1,-5.4 l 0,-10.5 0,-10.7 0,-5.2 c 0,-1.7 0.2,-3.4 0.4,-5.1 0.5,-3.3 1.4,-6.6 2.9,-9.6 1.5,-3 3.5,-5.6 6,-7.7 2.5,-2.1 5.5,-3.6 8.7,-4.4 3.2,-0.8 6.5,-0.9 9.7,-0.2 3.2,0.7 6.3,2.1 8.9,4.1 2.6,2 4.8,4.6 6.3,7.5 1.6,2.9 2.6,6.1 3.2,9.4 0.3,1.7 0.5,3.3 0.5,5 0.1,1.7 0,3.5 0,5.2 l 0,42.2 0,44.499997 -6.5,0 0,-44.499997 0,-42.2 0,-2.6 0,-1.2 0,-1.1 c -0.1,-1.4 -0.2,-2.8 -0.4,-4.2 -0.5,-2.7 -1.3,-5.2 -2.5,-7.4 -2.4,-4.4 -6.3,-7.4 -10.8,-8.3 -4.5,-1 -9.4,0.3 -12.9,3.3 -3.6,3 -5.9,7.7 -6.7,13.2 -0.2,1.4 -0.3,2.8 -0.3,4.3 l 0,5.1 0,10.5 0,10.5 0,2.7 c 0,1.1 0,2.1 -0.1,3.2 -0.2,2.2 -0.5,4.5 -1.1,6.8 -0.3,1.1 -0.7,2.4 -1.2,3.6 -0.5,1.2 -1.1,2.3 -1.7,3.4 -1.3,2.2 -3,4.2 -4.9,5.8 -1.9,1.699997 -4.1,2.999997 -6.5,4.099997 -2.3,1 -4.5,1.7 -6.7,2.2 -2.2,0.5 -4.3,0.7 -6.4,0.9 l -1.6,0.1 -0.9,0 -0.7,0 -2.6,0 -10.6,0 -42.2,0 -337.9,0 z" /><path
       sodipodi:nodetypes="ccccccccsccccccsssccsccccccccccccccsssccscscccscssccccccccccccc"
       inkscape:connector-curvature="0"
       id="path9"
       d="m 0,80.062023 337.8,0 42.2,0 10.6,0 2.6,0 0.7,0 0.8,0 c 1,-0.1 1.9,-0.2 2.6,-0.2 1.1,-0.1 1.7,-1.3 1.7,-2.4 l 0,-1.3 0,-2.4 0,-10.7 0,-10.7 0,-5.7 c 0.1,-2.4 0.2,-4.9 0.6,-7.5 0.7,-5.1 2.2,-10.4 4.8,-15.5 2.6,-5.1 6.3,-10 11,-14 4.7,-4 10.4,-6.9 16.4,-8.4 6,-1.5 12.4,-1.7 18.5,-0.4 6.1,1.2 11.9,3.9 16.8,7.7 4.9,3.7 8.8,8.5 11.6,13.6 2.8,5.1 4.4,10.4 5.3,15.5 0.4,2.6 0.7,5.1 0.8,7.5 l 0,1.8 0,1.6 0,2.6 0,42.2 0,44.599997 -6.5,0 0,-44.599997 0,-42.1 0,-2.6 0,-1.5 0,-1.6 c -0.1,-2.2 -0.3,-4.4 -0.7,-6.7 -0.8,-4.5 -2.2,-9.1 -4.6,-13.5 -2.4,-4.4 -5.7,-8.4 -9.8,-11.6 -4.1,-3.2 -9,-5.4 -14.1,-6.5 -5.1,-1.1 -10.5,-0.9 -15.6,0.3 -5.1,1.3 -9.9,3.7 -13.8,7.1 -4,3.3 -7.1,7.5 -9.3,11.9 -2.2,4.4 -3.5,9 -4.2,13.5 -0.3,2.2 -0.5,4.5 -0.5,6.7 l 0,5.5 0,10.6 0,10.6 0,2.5 c 0,0.6 0,1.2 -0.1,1.8 -0.1,1.1 -0.3,2.2 -0.5,3 -0.1,0.4 -0.2,0.7 -0.3,1 -0.1,0.3 -0.3,0.6 -0.4,0.9 -0.3,0.5 -0.7,1 -1.2,1.5 -0.5,0.4 -1,0.8 -1.6,1 -0.7,0.3 -1.6,0.6 -2.7,0.9 -1.1,0.2 -2.3,0.4 -3.6,0.5 l -1,0 -0.3,0 -0.6,0 -2.6,0 -10.6,0 -42.2,0 -338,0 z" /></g></svg>